<mxfile host="Electron" agent="Mozilla/5.0 (Windows NT 10.0; Win64; x64) AppleWebKit/537.36 (KHTML, like Gecko) draw.io/26.0.4 Chrome/128.0.6613.186 Electron/32.2.5 Safari/537.36" version="26.0.4">
  <diagram name="Page-1" id="qpLMRTVYR9D6LpWu1k3B">
    <mxGraphModel dx="2544" dy="1016" grid="0" gridSize="10" guides="1" tooltips="1" connect="1" arrows="1" fold="1" page="1" pageScale="1" pageWidth="1100" pageHeight="850" math="0" shadow="0">
      <root>
        <mxCell id="0" />
        <mxCell id="1" parent="0" />
        <mxCell id="4OmNLdYNi1URI1WtBf2Q-12" value="" style="verticalLabelPosition=bottom;verticalAlign=top;html=1;shape=mxgraph.basic.patternFillRect;fillStyle=diagRev;step=5;fillStrokeWidth=0.2;fillStrokeColor=#dddddd;shadow=0;" parent="1" vertex="1">
          <mxGeometry x="874" y="93" width="210" height="611" as="geometry" />
        </mxCell>
        <mxCell id="4OmNLdYNi1URI1WtBf2Q-2" value="" style="verticalLabelPosition=bottom;verticalAlign=top;html=1;shape=mxgraph.basic.patternFillRect;fillStyle=diagRev;step=5;fillStrokeWidth=0.2;fillStrokeColor=#dddddd;shadow=0;" parent="1" vertex="1">
          <mxGeometry x="174" y="261" width="174" height="318" as="geometry" />
        </mxCell>
        <mxCell id="4OmNLdYNi1URI1WtBf2Q-1" value="Web" style="rounded=1;whiteSpace=wrap;html=1;shadow=0;" parent="1" vertex="1">
          <mxGeometry x="198" y="401" width="120" height="60" as="geometry" />
        </mxCell>
        <mxCell id="4OmNLdYNi1URI1WtBf2Q-3" value="" style="verticalLabelPosition=bottom;verticalAlign=top;html=1;shape=mxgraph.basic.patternFillRect;fillStyle=diagRev;step=5;fillStrokeWidth=0.2;fillStrokeColor=#dddddd;shadow=0;fillColor=default;strokeColor=default;" parent="1" vertex="1">
          <mxGeometry x="543" y="95" width="220" height="605" as="geometry" />
        </mxCell>
        <mxCell id="4OmNLdYNi1URI1WtBf2Q-4" value="Catalogue" style="rounded=1;whiteSpace=wrap;html=1;fillColor=#60a917;strokeColor=#2D7600;shadow=0;fontColor=#ffffff;" parent="1" vertex="1">
          <mxGeometry x="593" y="130" width="120" height="60" as="geometry" />
        </mxCell>
        <mxCell id="4OmNLdYNi1URI1WtBf2Q-5" value="Cart" style="rounded=1;whiteSpace=wrap;html=1;fillColor=#1ba1e2;strokeColor=#006EAF;shadow=0;fontColor=#ffffff;" parent="1" vertex="1">
          <mxGeometry x="593" y="328" width="120" height="60" as="geometry" />
        </mxCell>
        <mxCell id="4OmNLdYNi1URI1WtBf2Q-6" value="User" style="rounded=1;whiteSpace=wrap;html=1;fillColor=#d80073;strokeColor=#A50040;shadow=0;fontColor=#ffffff;" parent="1" vertex="1">
          <mxGeometry x="593" y="230" width="120" height="60" as="geometry" />
        </mxCell>
        <mxCell id="4OmNLdYNi1URI1WtBf2Q-9" value="Shipping" style="rounded=1;whiteSpace=wrap;html=1;fillColor=#a20025;strokeColor=#6F0000;shadow=0;fontColor=#ffffff;" parent="1" vertex="1">
          <mxGeometry x="595.5" y="436" width="120" height="60" as="geometry" />
        </mxCell>
        <mxCell id="4OmNLdYNi1URI1WtBf2Q-10" value="Payment" style="rounded=1;whiteSpace=wrap;html=1;fillColor=#6a00ff;strokeColor=#3700CC;shadow=0;fontColor=#ffffff;" parent="1" vertex="1">
          <mxGeometry x="595.5" y="528" width="120" height="60" as="geometry" />
        </mxCell>
        <mxCell id="4OmNLdYNi1URI1WtBf2Q-13" value="MongoDB" style="rounded=1;whiteSpace=wrap;html=1;shadow=0;" parent="1" vertex="1">
          <mxGeometry x="919" y="176" width="120" height="60" as="geometry" />
        </mxCell>
        <mxCell id="4OmNLdYNi1URI1WtBf2Q-14" value="Redis" style="rounded=1;whiteSpace=wrap;html=1;fillColor=#a0522d;strokeColor=#6D1F00;shadow=0;fontColor=#ffffff;" parent="1" vertex="1">
          <mxGeometry x="923" y="327" width="120" height="60" as="geometry" />
        </mxCell>
        <mxCell id="4OmNLdYNi1URI1WtBf2Q-15" value="Mysql" style="rounded=1;whiteSpace=wrap;html=1;fillColor=#647687;strokeColor=#314354;shadow=0;fontColor=#ffffff;" parent="1" vertex="1">
          <mxGeometry x="919" y="468" width="120" height="60" as="geometry" />
        </mxCell>
        <mxCell id="4OmNLdYNi1URI1WtBf2Q-16" value="RabbitMQ" style="rounded=1;whiteSpace=wrap;html=1;fillColor=#ffcd28;strokeColor=#d79b00;shadow=0;gradientColor=#ffa500;" parent="1" vertex="1">
          <mxGeometry x="919" y="615" width="120" height="60" as="geometry" />
        </mxCell>
        <mxCell id="4OmNLdYNi1URI1WtBf2Q-17" style="edgeStyle=orthogonalEdgeStyle;rounded=0;orthogonalLoop=1;jettySize=auto;html=1;entryX=0.216;entryY=0.13;entryDx=0;entryDy=0;entryPerimeter=0;fillColor=#008a00;strokeColor=#FFFF66;strokeWidth=3;shadow=0;flowAnimation=1;" parent="1" source="4OmNLdYNi1URI1WtBf2Q-1" target="4OmNLdYNi1URI1WtBf2Q-3" edge="1">
          <mxGeometry relative="1" as="geometry" />
        </mxCell>
        <mxCell id="4OmNLdYNi1URI1WtBf2Q-18" style="edgeStyle=orthogonalEdgeStyle;rounded=0;orthogonalLoop=1;jettySize=auto;html=1;entryX=0.19;entryY=0.27;entryDx=0;entryDy=0;entryPerimeter=0;fillColor=#008a00;strokeColor=#FF0080;strokeWidth=3;shadow=0;flowAnimation=1;" parent="1" source="4OmNLdYNi1URI1WtBf2Q-1" target="4OmNLdYNi1URI1WtBf2Q-3" edge="1">
          <mxGeometry relative="1" as="geometry" />
        </mxCell>
        <mxCell id="4OmNLdYNi1URI1WtBf2Q-19" style="edgeStyle=orthogonalEdgeStyle;rounded=0;orthogonalLoop=1;jettySize=auto;html=1;entryX=0.19;entryY=0.429;entryDx=0;entryDy=0;entryPerimeter=0;fillColor=#008a00;strokeColor=#005700;strokeWidth=3;shadow=0;flowAnimation=1;" parent="1" source="4OmNLdYNi1URI1WtBf2Q-1" target="4OmNLdYNi1URI1WtBf2Q-3" edge="1">
          <mxGeometry relative="1" as="geometry" />
        </mxCell>
        <mxCell id="4OmNLdYNi1URI1WtBf2Q-20" style="edgeStyle=orthogonalEdgeStyle;rounded=0;orthogonalLoop=1;jettySize=auto;html=1;entryX=0.242;entryY=0.612;entryDx=0;entryDy=0;entryPerimeter=0;fillColor=#008a00;strokeColor=#0066CC;strokeWidth=3;shadow=0;flowAnimation=1;" parent="1" source="4OmNLdYNi1URI1WtBf2Q-1" target="4OmNLdYNi1URI1WtBf2Q-3" edge="1">
          <mxGeometry relative="1" as="geometry" />
        </mxCell>
        <mxCell id="4OmNLdYNi1URI1WtBf2Q-21" style="edgeStyle=orthogonalEdgeStyle;rounded=0;orthogonalLoop=1;jettySize=auto;html=1;entryX=0.207;entryY=0.768;entryDx=0;entryDy=0;entryPerimeter=0;fillColor=#008a00;strokeColor=#CC0000;strokeWidth=3;shadow=0;flowAnimation=1;" parent="1" source="4OmNLdYNi1URI1WtBf2Q-1" target="4OmNLdYNi1URI1WtBf2Q-3" edge="1">
          <mxGeometry relative="1" as="geometry" />
        </mxCell>
        <mxCell id="4OmNLdYNi1URI1WtBf2Q-29" value="&lt;font style=&quot;font-size: 19px;&quot;&gt;App-Tier&lt;/font&gt;" style="text;html=1;align=center;verticalAlign=middle;whiteSpace=wrap;rounded=0;strokeWidth=14;shadow=0;" parent="1" vertex="1">
          <mxGeometry x="618" y="50" width="75" height="40" as="geometry" />
        </mxCell>
        <mxCell id="4OmNLdYNi1URI1WtBf2Q-31" value="&lt;font style=&quot;font-size: 19px;&quot;&gt;Web-Tier&lt;/font&gt;" style="text;html=1;align=center;verticalAlign=middle;whiteSpace=wrap;rounded=0;strokeWidth=14;shadow=0;" parent="1" vertex="1">
          <mxGeometry x="220.5" y="216" width="92.5" height="40" as="geometry" />
        </mxCell>
        <mxCell id="4OmNLdYNi1URI1WtBf2Q-32" value="&lt;font style=&quot;font-size: 19px;&quot;&gt;DB-Tier&lt;/font&gt;" style="text;html=1;align=center;verticalAlign=middle;whiteSpace=wrap;rounded=0;strokeWidth=14;shadow=0;" parent="1" vertex="1">
          <mxGeometry x="941.5" y="50" width="75" height="40" as="geometry" />
        </mxCell>
        <mxCell id="oGAuqFjnH67rzPSYso7V-1" value="Dispatch" style="rounded=1;whiteSpace=wrap;html=1;fillColor=#008a00;strokeColor=#005700;shadow=0;fontColor=#ffffff;" vertex="1" parent="1">
          <mxGeometry x="595.5" y="620" width="120" height="60" as="geometry" />
        </mxCell>
        <mxCell id="oGAuqFjnH67rzPSYso7V-2" style="edgeStyle=orthogonalEdgeStyle;rounded=0;orthogonalLoop=1;jettySize=auto;html=1;entryX=0.207;entryY=0.922;entryDx=0;entryDy=0;entryPerimeter=0;flowAnimation=1;" edge="1" parent="1" source="4OmNLdYNi1URI1WtBf2Q-1" target="4OmNLdYNi1URI1WtBf2Q-3">
          <mxGeometry relative="1" as="geometry" />
        </mxCell>
        <mxCell id="oGAuqFjnH67rzPSYso7V-5" style="edgeStyle=orthogonalEdgeStyle;rounded=0;orthogonalLoop=1;jettySize=auto;html=1;entryX=0.223;entryY=0.188;entryDx=0;entryDy=0;entryPerimeter=0;fillColor=#d5e8d4;gradientColor=#97d077;strokeColor=#82b366;flowAnimation=1;strokeWidth=3;" edge="1" parent="1" source="4OmNLdYNi1URI1WtBf2Q-4" target="4OmNLdYNi1URI1WtBf2Q-12">
          <mxGeometry relative="1" as="geometry" />
        </mxCell>
        <mxCell id="oGAuqFjnH67rzPSYso7V-6" style="edgeStyle=orthogonalEdgeStyle;rounded=0;orthogonalLoop=1;jettySize=auto;html=1;entryX=0.214;entryY=0.188;entryDx=0;entryDy=0;entryPerimeter=0;strokeColor=#FF0080;flowAnimation=1;strokeWidth=3;" edge="1" parent="1" source="4OmNLdYNi1URI1WtBf2Q-6" target="4OmNLdYNi1URI1WtBf2Q-12">
          <mxGeometry relative="1" as="geometry" />
        </mxCell>
        <mxCell id="oGAuqFjnH67rzPSYso7V-7" style="edgeStyle=orthogonalEdgeStyle;rounded=0;orthogonalLoop=1;jettySize=auto;html=1;entryX=0;entryY=0.5;entryDx=0;entryDy=0;strokeColor=#FF0080;flowAnimation=1;strokeWidth=3;" edge="1" parent="1" source="4OmNLdYNi1URI1WtBf2Q-6" target="4OmNLdYNi1URI1WtBf2Q-14">
          <mxGeometry relative="1" as="geometry" />
        </mxCell>
        <mxCell id="oGAuqFjnH67rzPSYso7V-8" style="edgeStyle=orthogonalEdgeStyle;rounded=0;orthogonalLoop=1;jettySize=auto;html=1;entryX=0.219;entryY=0.435;entryDx=0;entryDy=0;entryPerimeter=0;flowAnimation=1;strokeColor=#009999;strokeWidth=3;" edge="1" parent="1" source="4OmNLdYNi1URI1WtBf2Q-5" target="4OmNLdYNi1URI1WtBf2Q-12">
          <mxGeometry relative="1" as="geometry" />
        </mxCell>
        <mxCell id="oGAuqFjnH67rzPSYso7V-9" style="edgeStyle=orthogonalEdgeStyle;rounded=0;orthogonalLoop=1;jettySize=auto;html=1;entryX=0.506;entryY=0.466;entryDx=0;entryDy=0;entryPerimeter=0;strokeColor=#CC0000;flowAnimation=1;strokeWidth=3;" edge="1" parent="1" source="4OmNLdYNi1URI1WtBf2Q-9" target="4OmNLdYNi1URI1WtBf2Q-3">
          <mxGeometry relative="1" as="geometry" />
        </mxCell>
        <mxCell id="oGAuqFjnH67rzPSYso7V-11" style="edgeStyle=orthogonalEdgeStyle;rounded=0;orthogonalLoop=1;jettySize=auto;html=1;entryX=0.205;entryY=0.667;entryDx=0;entryDy=0;entryPerimeter=0;strokeColor=#660000;flowAnimation=1;strokeWidth=3;" edge="1" parent="1" source="4OmNLdYNi1URI1WtBf2Q-9" target="4OmNLdYNi1URI1WtBf2Q-12">
          <mxGeometry relative="1" as="geometry" />
        </mxCell>
        <mxCell id="oGAuqFjnH67rzPSYso7V-12" style="edgeStyle=orthogonalEdgeStyle;rounded=0;orthogonalLoop=1;jettySize=auto;html=1;entryX=0.219;entryY=0.913;entryDx=0;entryDy=0;entryPerimeter=0;strokeColor=#660066;flowAnimation=1;strokeWidth=3;" edge="1" parent="1" source="4OmNLdYNi1URI1WtBf2Q-10" target="4OmNLdYNi1URI1WtBf2Q-12">
          <mxGeometry relative="1" as="geometry" />
        </mxCell>
        <mxCell id="oGAuqFjnH67rzPSYso7V-14" style="edgeStyle=orthogonalEdgeStyle;rounded=0;orthogonalLoop=1;jettySize=auto;html=1;entryX=0.21;entryY=0.912;entryDx=0;entryDy=0;entryPerimeter=0;fillColor=#008a00;strokeColor=#005700;flowAnimation=1;strokeWidth=3;" edge="1" parent="1" source="oGAuqFjnH67rzPSYso7V-1" target="4OmNLdYNi1URI1WtBf2Q-12">
          <mxGeometry relative="1" as="geometry" />
        </mxCell>
        <mxCell id="oGAuqFjnH67rzPSYso7V-15" value="" style="endArrow=classic;html=1;rounded=0;strokeColor=#33FFFF;flowAnimation=1;strokeWidth=3;" edge="1" parent="1">
          <mxGeometry width="50" height="50" relative="1" as="geometry">
            <mxPoint x="777" y="357" as="sourcePoint" />
            <mxPoint x="777" y="162" as="targetPoint" />
          </mxGeometry>
        </mxCell>
        <mxCell id="oGAuqFjnH67rzPSYso7V-16" value="" style="shape=stencil(fZbdcgIhDIWfZm8zQAg/17Z9j85U606tdqz9e/tmZ0c0uJ47xP0I5JwEBl59bp8/1kNwn6fj4W39M76ctgM/DCGM++36OJ50NPDjwKvN4bh+PR6+9i/z74/n6ctp9H74nlb4nbmSKZeJCu5vngmZ6jzzNAO7cX8FVKEsBuBKrgKg9oAE8gkCbLeUhEoEQKSUDZDLeWYRKIl8MEDRmHwfyBrBG6Amyu4+kDxxMoB3jhwgYu7TVAsVkFcWCs4CTBEoF4RctKeOxHIf8IXYpikHikAIf+MNUW94AGSSaoAoFIE3AlOyeWU+p2E5S9yfQZcQILVuQOwZdJNoS9Ls3wA5u2XZTIHECqeJ9kDpSaauRiNVcAY1QhdBzeLBli5WazpkSsBLV25uRaqWRyFawTQzRRIQYirJzq5atkBqLfouwqUxLBepthWb10vrWZY6UOAeyKCCtDV625mm9gmUC4Wc3VLJMMIE1BsA2FW9JraVlQB7n3c9oMKhCLEvIM1zBPZ25/umNQ1tVEC2G+fFCC8g398O2hNQuQlVu752DBfA+q0ptnqO5JFmeuIuo9DY7KjY71UxdJV4EntifPWorW++R/dC4t7V3DlIB5cHx2bc7eb3yvX//QNFp+bHDT/+Aw==);lineShape=1;strokeColor=default;" vertex="1" parent="1">
          <mxGeometry x="653.0970869178225" y="407.01240925993807" width="6.675056817307775" height="6.664623166225283" as="geometry" />
        </mxCell>
        <mxCell id="oGAuqFjnH67rzPSYso7V-17" value="" style="shape=stencil(jVZJUgMxDHzNXLtsyYt8ZvkHVQQyRUioELbfYzM1IXIygpszVttqqdXxwFev67uX1UDu9bDfPa0+xvvDeuDrgWjcrlf78VBXA98MfPWw268e97u37f30++WuRbbV8+69nfA54RKDU0OR+5q+ODj38+F2it+M25P4HOGyiicEXo6XiKjjC0Jeji+MzPp8BxYDIMikABzgaBng3ZHhjAiCkowrMkJUgFq1FAyAB+ucckL0RpUIpKskCWTckP28fSyrhxh9iwVcNICQjJRCRtGkRRDLMoAFXpMWBx8NgEPRrU71COMGyvCadOQ5yUWA5lCTLIY2Wkr6BgpIhvoaac3B06zHxbLqeQsgg3PtW9BidbNUFoWhKXs44/ymPNFNQLJmoUq7I5xmZf1zeKoDkHHDpfnkuS2LFuC1LgRieQb3npEJ0ehaczHdNWEEA9BsUgOKQzBYNx/WZarzaXE4N+4/AG1WOkA2y1qrLloaJ625PA21rrpztTXmgB6t+ggIEAPgYz8OkmcXudy5Xq5ZkCwKoM6Tqn4Nm3R9PjGgGONwrm2CM7pWd8+mxxJeQtAG5jOyVVBC0QnZ8c1O9D9VL4m6+H1sPIybzfRWOd3vHyf10/Sw4Ztv);lineShape=1;strokeColor=default;" vertex="1" parent="1">
          <mxGeometry x="1122.720398642713" y="413.8631119902602" width="7.769368468697005" height="6.1391752004140345" as="geometry" />
        </mxCell>
        <mxCell id="oGAuqFjnH67rzPSYso7V-18" value="" style="verticalLabelPosition=bottom;html=1;verticalAlign=top;align=center;strokeColor=none;fillColor=#00BEF2;shape=mxgraph.azure.user;" vertex="1" parent="1">
          <mxGeometry x="-77" y="357" width="127" height="117" as="geometry" />
        </mxCell>
        <mxCell id="oGAuqFjnH67rzPSYso7V-19" style="edgeStyle=orthogonalEdgeStyle;rounded=0;orthogonalLoop=1;jettySize=auto;html=1;entryX=0.088;entryY=0.484;entryDx=0;entryDy=0;entryPerimeter=0;" edge="1" parent="1">
          <mxGeometry relative="1" as="geometry">
            <mxPoint x="50.000000000000455" y="430.55555555555543" as="sourcePoint" />
            <mxPoint x="189.31200000000035" y="429.91200000000003" as="targetPoint" />
          </mxGeometry>
        </mxCell>
      </root>
    </mxGraphModel>
  </diagram>
</mxfile>
